# xmcd CD database file
#
# Track frame offsets:
#	150
#	25367
#	43420
#	66413
#	100339
#	122807
#	152830
#	177011
#	202955
#	222964
#
# Disc length: 3277 seconds
#
# Revision: 0
# Processed by: cddbd v1.5.1PL2 Copyright (c) Steve Scherf et al.
# Submitted via: CDex 1.51
#
DISCID=920ccb0a
DTITLE=Sounds Ville - Sounds Ville
DYEAR=2005
DGENRE=Jazz
TTITLE0=Hot Barbecue [Jack Mc Duff]
TTITLE1=She Came In Throught The Badroomwindow [Lennon/Mc Cartney]
TTITLE2=Cocain [JJ Cale]
TTITLE3=A Little 3/4 For God and Company [les Mc Cann]
TTITLE4=Struttin [Billy Preston]
TTITLE5=Mercy Mercy Mercy [Joel Zawinul]
TTITLE6=Pretzel Logic [Becker-Fagen]
TTITLE7=Theme From Starsky and Hutch [Tom Scott]
TTITLE8=Farwell [Lars Kutschke]
TTITLE9=Tee-Time [Alberto Marsico]
EXTD=YEAR: 2005
EXTT0=
EXTT1=
EXTT2=
EXTT3=
EXTT4=
EXTT5=
EXTT6=
EXTT7=
EXTT8=
EXTT9=
PLAYORDER=
